<?xml version="1.0" encoding="UTF-8"?>
<svg width="700pt" height="700pt" version="1.1" viewBox="0 0 700 700" xmlns="http://www.w3.org/2000/svg" xmlns:xlink="http://www.w3.org/1999/xlink">
 <defs>
  <symbol id="m" overflow="visible">
   <path d="m29.312-1.75c-1.5117 0.78125-3.0898 1.3711-4.7344 1.7656-1.6367 0.40625-3.3398 0.60938-5.1094 0.60938-5.3125 0-9.5273-1.4844-12.641-4.4531-3.1055-2.9688-4.6562-7-4.6562-12.094s1.5508-9.125 4.6562-12.094c3.1133-2.9688 7.3281-4.4531 12.641-4.4531 1.7695 0 3.4727 0.19922 5.1094 0.59375 1.6445 0.39844 3.2227 0.99219 4.7344 1.7812v6.5938c-1.5312-1.0391-3.0391-1.8008-4.5156-2.2812-1.4805-0.48828-3.0391-0.73438-4.6719-0.73438-2.9375 0-5.2461 0.94531-6.9219 2.8281-1.6797 1.875-2.5156 4.4648-2.5156 7.7656 0 3.293 0.83594 5.8828 2.5156 7.7656 1.6758 1.875 3.9844 2.8125 6.9219 2.8125 1.6328 0 3.1914-0.23828 4.6719-0.71875 1.4766-0.48828 2.9844-1.2539 4.5156-2.2969z"/>
  </symbol>
  <symbol id="h" overflow="visible">
   <path d="m21.453-17.406c-0.67969-0.3125-1.3516-0.53906-2.0156-0.6875-0.65625-0.15625-1.3203-0.23438-1.9844-0.23438-1.9688 0-3.4844 0.63281-4.5469 1.8906-1.0547 1.2617-1.5781 3.0703-1.5781 5.4219v11.016h-7.6562v-23.922h7.6562v3.9219c0.97656-1.5625 2.1016-2.7031 3.375-3.4219 1.2812-0.71875 2.8125-1.0781 4.5938-1.0781 0.25 0 0.52344 0.011719 0.82812 0.03125 0.30078 0.023438 0.73438 0.070312 1.2969 0.14062z"/>
  </symbol>
  <symbol id="b" overflow="visible">
   <path d="m27.562-12.031v2.1875h-17.891c0.1875 1.793 0.83203 3.1367 1.9375 4.0312 1.1133 0.89844 2.6719 1.3438 4.6719 1.3438 1.6016 0 3.25-0.23438 4.9375-0.70312 1.6875-0.47656 3.4219-1.2031 5.2031-2.1719v5.8906c-1.8047 0.6875-3.6094 1.2031-5.4219 1.5469-1.8125 0.35156-3.6211 0.53125-5.4219 0.53125-4.3359 0-7.7031-1.0977-10.109-3.2969-2.3984-2.207-3.5938-5.2969-3.5938-9.2656 0-3.9062 1.1758-6.9727 3.5312-9.2031 2.3633-2.2383 5.6094-3.3594 9.7344-3.3594 3.7578 0 6.7695 1.1367 9.0312 3.4062 2.2578 2.2617 3.3906 5.2812 3.3906 9.0625zm-7.8594-2.5312c0-1.457-0.42969-2.6289-1.2812-3.5156-0.84375-0.89453-1.9492-1.3438-3.3125-1.3438-1.4922 0-2.6992 0.41797-3.625 1.25-0.91797 0.83594-1.4922 2.0391-1.7188 3.6094z"/>
  </symbol>
  <symbol id="a" overflow="visible">
   <path d="m14.391-10.766c-1.5938 0-2.793 0.27344-3.5938 0.8125-0.80469 0.54297-1.2031 1.3398-1.2031 2.3906 0 0.96875 0.32031 1.7305 0.96875 2.2812 0.64453 0.54297 1.5469 0.8125 2.7031 0.8125 1.4375 0 2.6445-0.51562 3.625-1.5469 0.98828-1.0312 1.4844-2.3203 1.4844-3.875v-0.875zm11.688-2.8906v13.656h-7.7031v-3.5469c-1.0312 1.4492-2.1875 2.5078-3.4688 3.1719s-2.8398 1-4.6719 1c-2.4805 0-4.4961-0.72266-6.0469-2.1719-1.543-1.4453-2.3125-3.3203-2.3125-5.625 0-2.8125 0.96094-4.8672 2.8906-6.1719 1.9375-1.3125 4.9688-1.9688 9.0938-1.9688h4.5156v-0.60938c0-1.207-0.48047-2.0938-1.4375-2.6562-0.94922-0.5625-2.4375-0.84375-4.4688-0.84375-1.6367 0-3.1562 0.16797-4.5625 0.5-1.4062 0.32422-2.7188 0.8125-3.9375 1.4688v-5.8281c1.6445-0.40625 3.2891-0.70703 4.9375-0.90625 1.6562-0.20703 3.3047-0.3125 4.9531-0.3125 4.3203 0 7.4375 0.85547 9.3438 2.5625 1.9141 1.6992 2.875 4.4609 2.875 8.2812z"/>
  </symbol>
  <symbol id="c" overflow="visible">
   <path d="m12.031-30.719v6.7969h7.875v5.4688h-7.875v10.141c0 1.1172 0.21875 1.8711 0.65625 2.2656 0.4375 0.38672 1.3125 0.57812 2.625 0.57812h3.9375v5.4688h-6.5625c-3.0234 0-5.1641-0.62891-6.4219-1.8906-1.2617-1.2578-1.8906-3.3984-1.8906-6.4219v-10.141h-3.7969v-5.4688h3.7969v-6.7969z"/>
  </symbol>
  <symbol id="g" overflow="visible">
   <path d="m19.953-20.422v-12.812h7.6875v33.234h-7.6875v-3.4531c-1.0547 1.4062-2.2148 2.4375-3.4844 3.0938-1.2734 0.65625-2.7422 0.98438-4.4062 0.98438-2.9492 0-5.3711-1.1719-7.2656-3.5156-1.8867-2.3438-2.8281-5.3594-2.8281-9.0469s0.94141-6.7031 2.8281-9.0469c1.8945-2.3438 4.3164-3.5156 7.2656-3.5156 1.6562 0 3.1172 0.33594 4.3906 1 1.2812 0.65625 2.4453 1.6836 3.5 3.0781zm-5.0469 15.484c1.6445 0 2.8945-0.59766 3.75-1.7969 0.86328-1.1953 1.2969-2.9297 1.2969-5.2031 0-2.2812-0.43359-4.0195-1.2969-5.2188-0.85547-1.1953-2.1055-1.7969-3.75-1.7969-1.625 0-2.8711 0.60156-3.7344 1.7969-0.85547 1.1992-1.2812 2.9375-1.2812 5.2188 0 2.2734 0.42578 4.0078 1.2812 5.2031 0.86328 1.1992 2.1094 1.7969 3.7344 1.7969z"/>
  </symbol>
  <symbol id="f" overflow="visible">
   <path d="m16.406-4.9375c1.6328 0 2.8828-0.59766 3.75-1.7969 0.86328-1.1953 1.2969-2.9297 1.2969-5.2031 0-2.2812-0.43359-4.0195-1.2969-5.2188-0.86719-1.1953-2.1172-1.7969-3.75-1.7969-1.6367 0-2.8906 0.60547-3.7656 1.8125-0.875 1.1992-1.3125 2.9336-1.3125 5.2031 0 2.2617 0.4375 3.9961 1.3125 5.2031 0.875 1.1992 2.1289 1.7969 3.7656 1.7969zm-5.0781-15.484c1.0508-1.3945 2.2188-2.4219 3.5-3.0781 1.2812-0.66406 2.7539-1 4.4219-1 2.9453 0 5.3672 1.1719 7.2656 3.5156 1.8945 2.3438 2.8438 5.3594 2.8438 9.0469s-0.94922 6.7031-2.8438 9.0469c-1.8984 2.3438-4.3203 3.5156-7.2656 3.5156-1.668 0-3.1406-0.33594-4.4219-1s-2.4492-1.6914-3.5-3.0781v3.4531h-7.6562v-33.234h7.6562z"/>
  </symbol>
  <symbol id="e" overflow="visible">
   <path d="m0.53125-23.922h7.6562l6.4219 16.234 5.4688-16.234h7.6562l-10.062 26.188c-1.0117 2.6641-2.1953 4.5234-3.5469 5.5781-1.3438 1.0625-3.1211 1.5938-5.3281 1.5938h-4.4219v-5.0156h2.3906c1.3008 0 2.2422-0.21094 2.8281-0.625 0.59375-0.40625 1.0547-1.1484 1.3906-2.2188l0.20312-0.65625z"/>
  </symbol>
  <symbol id="d" overflow="visible">
   <path d="m0.21875-31.891h8.2656l8.4531 23.531 8.4375-23.531h8.2656l-11.812 31.891h-9.7969z"/>
  </symbol>
  <symbol id="l" overflow="visible">
   <path d="m3.6719-23.922h7.6562v23.922h-7.6562zm0-9.3125h7.6562v6.2344h-7.6562z"/>
  </symbol>
  <symbol id="k" overflow="visible">
   <path d="m22.359-23.172v5.7969c-1.6367-0.67578-3.2148-1.1875-4.7344-1.5312-1.5234-0.34375-2.9609-0.51562-4.3125-0.51562-1.4609 0-2.543 0.18359-3.25 0.54688-0.69922 0.36719-1.0469 0.92188-1.0469 1.6719 0 0.61719 0.26562 1.0898 0.79688 1.4219 0.53125 0.32422 1.4883 0.5625 2.875 0.71875l1.3438 0.1875c3.9141 0.5 6.5508 1.3242 7.9062 2.4688 1.3516 1.1367 2.0312 2.9219 2.0312 5.3594 0 2.5547-0.94531 4.4688-2.8281 5.75-1.875 1.2812-4.6797 1.9219-8.4062 1.9219-1.5859 0-3.2188-0.125-4.9062-0.375s-3.4219-0.625-5.2031-1.125v-5.8125c1.5195 0.74219 3.082 1.2969 4.6875 1.6719 1.6016 0.36719 3.2344 0.54688 4.8906 0.54688 1.4883 0 2.6094-0.20312 3.3594-0.60938 0.75781-0.41406 1.1406-1.0312 1.1406-1.8438 0-0.6875-0.26172-1.1953-0.78125-1.5312-0.52344-0.33203-1.5586-0.59375-3.1094-0.78125l-1.3438-0.17188c-3.4062-0.42578-5.793-1.2109-7.1562-2.3594-1.3672-1.1562-2.0469-2.9102-2.0469-5.2656 0-2.5312 0.86719-4.4062 2.6094-5.625 1.7383-1.2266 4.3984-1.8438 7.9844-1.8438 1.4062 0 2.8828 0.10938 4.4375 0.32812 1.5508 0.21094 3.2383 0.54297 5.0625 1z"/>
  </symbol>
  <symbol id="j" overflow="visible">
   <path d="m3.4219-9.3125v-14.609h7.6875v2.3906c0 1.293-0.011719 2.918-0.03125 4.875-0.011719 1.9609-0.015625 3.2656-0.015625 3.9219 0 1.9297 0.046875 3.3125 0.14062 4.1562 0.10156 0.84375 0.28125 1.4609 0.53125 1.8438 0.3125 0.5 0.71875 0.88672 1.2188 1.1562 0.50781 0.27344 1.0938 0.40625 1.75 0.40625 1.5938 0 2.8438-0.60938 3.75-1.8281 0.91406-1.2266 1.375-2.9297 1.375-5.1094v-11.812h7.6406v23.922h-7.6406v-3.4531c-1.1562 1.3867-2.3828 2.4141-3.6719 3.0781-1.2812 0.66406-2.6992 1-4.25 1-2.7734 0-4.8828-0.84766-6.3281-2.5469-1.4375-1.6953-2.1562-4.1602-2.1562-7.3906z"/>
  </symbol>
  <symbol id="i" overflow="visible">
   <path d="m3.6719-33.234h7.6562v33.234h-7.6562z"/>
  </symbol>
 </defs>
 <g>
  <path d="m560 163.1c-3.4141-3.3945-8.9258-3.3945-12.336 0-6.5898 6.7695-14.031 12.652-22.141 17.5l-76.211-75.602c4.8477-8.1094 10.73-15.551 17.5-22.137 1.6562-1.6445 2.5898-3.8789 2.5898-6.2148 0-2.332-0.93359-4.5664-2.5898-6.2109-3.2305-3.1836-8.3555-3.375-11.812-0.4375-9.4297 9.3281-17.344 20.074-23.449 31.852-6.8359 13.668-10.996 28.516-12.25 43.75-1.0977 15.066-0.92188 30.199 0.52344 45.234-14.863-1.4414-29.82-1.6172-44.711-0.52344-15.359 1.2539-30.348 5.3789-44.188 12.164-12.477 6.3906-23.781 14.852-33.426 25.023-9.5742 9.4102-17.555 20.316-23.625 32.289-6.7148 13.703-10.809 28.539-12.074 43.75-1.0781 15.07-0.84375 30.207 0.69922 45.234-15.109-1.3125-30.305-1.3125-45.414 0-15.23 1.3047-30.078 5.4922-43.75 12.34-12.039 5.8789-23.055 13.648-32.637 23.012l-0.69922 0.875c-2.5234 2.5039-3.2812 6.2852-1.918 9.5664 1.3633 3.2852 4.5742 5.418 8.1289 5.3945 2.3086-0.03125 4.5117-0.97656 6.125-2.625h0.4375c6.5234-6.7695 13.91-12.652 21.965-17.5l75.949 75.164c-4.8711 8.0391-10.754 15.418-17.5 21.961h-0.4375c-1.7305 1.6836-2.7188 3.9844-2.75 6.3984-0.035156 2.4102 0.89062 4.7383 2.5742 6.4648 3.5039 3.6016 9.2617 3.6797 12.863 0.17578h0.4375c9.4062-9.2617 17.289-19.953 23.363-31.676 6.8477-13.668 11.031-28.516 12.336-43.75 1.168-15.121 1.0234-30.316-0.4375-45.41 14.805 1.4414 29.703 1.6172 44.539 0.52344 15.355-1.2109 30.348-5.3086 44.188-12.074 12.203-6.4883 23.238-14.977 32.637-25.113 9.5664-9.4141 17.547-20.32 23.625-32.289 6.7305-13.703 10.855-28.539 12.164-43.75 1.0938-14.891 0.91797-29.848-0.52734-44.711 15.039 1.4453 30.172 1.6211 45.238 0.52344 15.23-1.2539 30.082-5.4102 43.75-12.25 11.773-6.1055 22.523-14.02 31.852-23.449 2.1914-1.4414 3.6211-3.793 3.8906-6.4062 0.27344-2.6094-0.64063-5.2031-2.4922-7.0664zm-74.113 30.625-49.613-49.352c0.94922-7.625 2.6758-15.129 5.1641-22.398l66.586 66.586c-7.2656 2.4961-14.773 4.2266-22.398 5.1641zm-89.688 120.05-79.977-79.977 0.003906 0.003906c5.043-4.3633 10.492-8.2305 16.273-11.551l75.25 75.25c-3.3203 5.7812-7.1875 11.23-11.551 16.273zm-28.699 23.977-75.25-75.25c3.375-5.6914 7.2383-11.078 11.551-16.102l80.062 80.062c-5.1133 4.2344-10.59 8.0117-16.363 11.289zm-39.551 12.863-48.824-48.824c0.96094-7.6719 2.6602-15.234 5.0742-22.578l66.324 66.324v0.003906c-7.2578 2.3984-14.73 4.0977-22.312 5.0742zm-113.75 15.574 49.523 49.523h0.003906c-0.97656 7.6289-2.7344 15.137-5.25 22.402l-66.676-66.676c7.293-2.5234 14.828-4.2812 22.488-5.25zm23.625-1.1367c8.75 0 17.5 0.69922 25.637 1.3984 0.69922 8.75 1.3125 17.062 1.3984 25.637zm42.176-15.051c-0.61328-8.75-1.2266-16.711-1.3984-24.762l26.25 26.25c-8.4023 0-16.625-0.61328-24.852-1.4883zm69.477-135.8c7.2852-2.5078 14.828-4.207 22.484-5.0742l48.914 48.914c-0.86719 7.6562-2.5664 15.199-5.0742 22.484zm46.199-6.2109c8.1367 0 16.449 0.69922 24.938 1.3984 0.69922 8.75 1.2266 16.801 1.3984 24.938zm41.125-14.789c-0.69922-8.75-1.3125-16.977-1.3984-25.461l26.863 26.863c-8.7539 0.17188-17.242-0.4375-25.727-1.1406z"/>
  <use x="70" y="691.25" xlink:href="#m"/>
  <use x="102.109375" y="691.25" xlink:href="#h"/>
  <use x="123.683594" y="691.25" xlink:href="#b"/>
  <use x="153.355469" y="691.25" xlink:href="#a"/>
  <use x="182.878906" y="691.25" xlink:href="#c"/>
  <use x="203.792969" y="691.25" xlink:href="#b"/>
  <use x="233.464844" y="691.25" xlink:href="#g"/>
  <use x="280.011719" y="691.25" xlink:href="#f"/>
  <use x="311.328125" y="691.25" xlink:href="#e"/>
  <use x="355.078125" y="691.25" xlink:href="#d"/>
  <use x="388.9375" y="691.25" xlink:href="#l"/>
  <use x="403.9375" y="691.25" xlink:href="#k"/>
  <use x="429.976562" y="691.25" xlink:href="#j"/>
  <use x="461.121094" y="691.25" xlink:href="#a"/>
  <use x="490.644531" y="691.25" xlink:href="#i"/>
  <use x="505.640625" y="691.25" xlink:href="#b"/>
  <use x="535.3125" y="691.25" xlink:href="#a"/>
  <use x="564.835938" y="691.25" xlink:href="#c"/>
 </g>
</svg>
